<?xml version="1.0" standalone="no"?>
<!DOCTYPE svg PUBLIC "-//W3C//DTD SVG 20010904//EN"
 "http://www.w3.org/TR/2001/REC-SVG-20010904/DTD/svg10.dtd">
<svg version="1.0" xmlns="http://www.w3.org/2000/svg"
 width="512.000000pt" height="512.000000pt" viewBox="0 0 512.000000 512.000000"
 preserveAspectRatio="xMidYMid meet">
<metadata>
Created by potrace 1.11, written by Peter Selinger 2001-2013
</metadata>
<g transform="translate(0.000000,512.000000) scale(0.100000,-0.100000)"
fill="#000000" stroke="none">
<path d="M1901 4970 c-195 -41 -385 -165 -490 -318 l-37 -54 -104 -3 c-132 -3
-221 -24 -335 -80 -208 -102 -358 -285 -415 -510 -19 -75 -20 -111 -20 -784 0
-787 -3 -747 70 -819 80 -80 186 -101 292 -57 17 7 18 -47 20 -952 l3 -958 27
-57 c31 -67 103 -147 162 -182 101 -59 53 -57 1232 -54 l1079 3 67 33 c124 61
209 177 228 314 5 35 10 145 10 246 l0 182 270 0 c161 0 290 5 322 11 180 39
314 185 338 369 12 99 12 1681 0 1780 -24 188 -162 334 -349 370 -30 5 -172
10 -317 10 l-264 0 0 150 0 151 55 54 c223 217 159 585 -125 719 -83 39 -213
48 -305 22 -31 -10 -58 -16 -59 -14 -2 2 -12 19 -24 39 -33 55 -106 117 -176
150 -117 55 -229 60 -344 17 l-54 -20 -36 34 c-92 86 -177 136 -304 179 -84
29 -106 32 -233 35 -77 2 -160 -1 -184 -6z m327 -145 c118 -28 228 -93 327
-194 40 -41 67 -61 83 -61 14 0 54 15 91 33 57 28 76 32 141 31 61 0 85 -5
125 -26 65 -34 118 -90 146 -153 12 -27 28 -58 37 -67 20 -24 59 -23 101 3 57
35 143 52 205 40 77 -14 126 -42 179 -101 59 -65 81 -130 75 -219 -15 -205
-218 -334 -410 -261 -76 29 -113 26 -149 -9 l-29 -29 0 -407 c0 -449 -1 -458
-62 -495 -42 -25 -84 -25 -125 0 -57 34 -58 40 -63 355 l-5 290 -28 57 c-54
111 -192 206 -332 229 -113 19 -154 8 -233 -62 -108 -96 -219 -149 -315 -149
-97 0 -232 55 -330 135 -68 55 -107 69 -157 55 -44 -12 -79 -49 -111 -115 -13
-27 -54 -80 -90 -118 -86 -86 -178 -132 -299 -149 -47 -6 -93 -18 -102 -26
-15 -13 -17 -54 -20 -441 -3 -478 -2 -467 -75 -498 -75 -31 -156 17 -168 100
-3 23 -5 335 -3 692 4 724 2 697 75 845 55 109 170 223 283 279 117 57 207 75
343 66 74 -4 113 -3 122 5 7 6 26 37 41 68 61 126 224 249 386 292 91 24 257
26 346 5z m364 -1143 c48 -21 130 -90 151 -126 8 -14 14 -115 17 -311 6 -312
8 -325 64 -398 26 -34 111 -87 140 -87 14 0 16 -79 18 -851 l3 -851 24 -19
c30 -25 62 -24 89 1 l22 21 0 852 0 853 52 34 c40 27 60 49 83 94 l30 60 3
378 3 379 32 -8 c18 -4 75 -8 128 -8 l97 1 -1 -1468 0 -1468 -1263 0 -1264 0
0 1268 0 1268 68 17 c183 47 343 172 423 329 11 21 22 38 24 38 3 0 29 -18 57
-41 29 -22 77 -53 108 -69 242 -122 478 -93 663 82 l62 59 61 -4 c33 -3 81
-14 106 -25z m1734 -394 c59 -31 108 -84 138 -147 21 -46 21 -52 21 -951 l0
-905 -24 -53 c-31 -69 -106 -137 -174 -157 -40 -12 -109 -15 -324 -15 l-273 0
0 115 0 115 250 0 251 0 24 25 25 24 0 851 0 851 -25 24 -24 25 -251 0 -250 0
0 116 0 115 293 -3 292 -3 51 -27z m-226 -1098 l0 -760 -205 0 -205 0 0 760 0
760 205 0 205 0 0 -760z m-553 -1644 c-9 -120 -62 -202 -162 -247 -38 -18 -95
-19 -1100 -18 -1154 0 -1097 -3 -1173 58 -61 48 -92 118 -92 208 l0 73 1266 0
1267 0 -6 -74z"/>
<path d="M1460 3080 c-20 -20 -20 -33 -20 -1015 l0 -996 25 -24 c31 -32 59
-32 90 0 l25 24 0 996 c0 982 0 995 -20 1015 -11 11 -33 20 -50 20 -17 0 -39
-9 -50 -20z"/>
<path d="M2231 3074 c-21 -27 -21 -30 -21 -1016 l0 -989 25 -24 c30 -31 65
-32 93 -2 l22 23 0 997 c0 984 0 997 -20 1017 -29 29 -74 26 -99 -6z"/>
</g>
</svg>
