<?xml version="1.0" standalone="no"?>
<!DOCTYPE svg PUBLIC "-//W3C//DTD SVG 20010904//EN"
 "http://www.w3.org/TR/2001/REC-SVG-20010904/DTD/svg10.dtd">
<svg version="1.0" xmlns="http://www.w3.org/2000/svg"
 width="700.000000pt" height="700.000000pt" viewBox="0 0 700.000000 700.000000"
 preserveAspectRatio="xMidYMid meet">
<metadata>
Created by potrace 1.11, written by Peter Selinger 2001-2013
</metadata>
<g transform="translate(0.000000,700.000000) scale(0.100000,-0.100000)"
fill="#currentColor" stroke="none">
<path d="M3550 5940 c-14 -10 -125 -84 -247 -164 -123 -81 -223 -149 -223
-153 0 -3 15 -29 34 -57 18 -28 136 -206 261 -396 319 -483 316 -480 329 -481
139 -8 379 -67 516 -126 165 -71 312 -156 439 -251 19 -15 31 -20 26 -12 -5 8
-77 119 -160 245 -273 414 -475 720 -485 735 -6 8 -109 165 -230 348 -121 182
-223 332 -227 331 -5 0 -19 -9 -33 -19z"/>
<path d="M3408 4424 c-2 -1 -37 -5 -78 -8 -302 -27 -629 -164 -870 -365 -300
-251 -503 -604 -569 -986 -15 -86 -18 -149 -16 -290 2 -99 6 -196 9 -215 52
-282 127 -471 268 -682 258 -383 679 -641 1148 -704 76 -10 281 -11 370 -2
554 58 1039 397 1293 903 42 85 102 240 111 288 2 12 9 40 14 62 11 40 14 55
29 150 10 65 10 361 -1 445 -11 89 -58 270 -95 363 -73 183 -169 343 -286 476
-152 172 -321 303 -518 399 -170 84 -316 127 -530 158 -45 6 -274 13 -279 8z
m274 -623 c32 -7 60 -12 63 -12 15 1 183 -64 232 -91 239 -129 419 -345 497
-596 27 -86 30 -102 42 -192 43 -348 -115 -716 -398 -928 -148 -111 -279 -167
-473 -200 -65 -11 -275 -7 -340 7 -365 79 -649 326 -769 668 -131 374 -38 781
242 1059 80 80 208 170 288 205 27 11 63 27 79 34 17 7 46 16 65 21 19 4 37 8
40 9 47 11 123 25 150 28 70 6 226 -1 282 -12z"/>
</g>
</svg>
